<svg xmlns="http://www.w3.org/2000/svg" width="300" height="300"><g transform="translate(0 -1)"><ellipse cy="151.109" cx="150.5" rx="146.888" ry="146.279" fill="none" stroke="#0086f6" stroke-width="7.543"/><g aria-label="x5" style="line-height:1.25;-inkscape-font-specification:'sans-serif, Normal';font-variant-ligatures:normal;font-variant-caps:normal;font-variant-numeric:normal;font-feature-settings:normal;text-align:start" font-weight="400" font-size="175.035" font-family="sans-serif" letter-spacing="0" word-spacing="0" fill="#0086ff" stroke-width=".656"><path d="M144.658 190.605h-20.255L97.31 153.94l-27.264 36.665H51.33L88.592 143 51.671 95.14h20.255l26.922 36.067 27.008-36.067h18.802l-37.52 47.006zM248.671 150.18q0 8.888-3.248 17.007-3.247 8.12-8.888 13.675-6.154 5.982-14.7 9.23-8.462 3.162-19.658 3.162-10.427 0-20.084-2.222-9.658-2.136-16.324-5.213v-18.034h1.196q7.008 4.445 16.41 7.607 9.401 3.077 18.46 3.077 6.069 0 11.71-1.71 5.726-1.709 10.17-5.982 3.76-3.675 5.64-8.803 1.966-5.128 1.966-11.88 0-6.581-2.307-11.11-2.222-4.53-6.24-7.265-4.444-3.248-10.854-4.53-6.324-1.368-14.187-1.368-7.521 0-14.53 1.026-6.922 1.026-11.965 2.051V63.345h76.578v14.957h-60.083v33.845q3.675-.342 7.521-.513 3.846-.171 6.667-.171 10.341 0 18.119 1.795 7.777 1.71 14.273 6.153 6.837 4.701 10.597 12.137 3.761 7.435 3.761 18.631z"/></g><text style="line-height:1.25;-inkscape-font-specification:Michroma" x="50.492" y="240.241" font-weight="400" font-size="49.584" font-family="Michroma" letter-spacing="0" word-spacing="0" fill="#0086ff" stroke-width="1.24"><tspan x="50.492" y="240.241">Modal</tspan></text></g></svg>