<svg xmlns="http://www.w3.org/2000/svg" width="300" height="300"><g transform="translate(0 -1)"><circle cx="150" cy="151" r="145" fill="none" stroke="#0086ff" stroke-width="10" stroke-linecap="square" stroke-linejoin="round" stroke-miterlimit="1"/><g aria-label="modal" letter-spacing="0" word-spacing="0" fill="#0086ff" stroke-width="1.242"><path d="M87.577 243.12h-4.656v-15.764q0-2.522-.34-4.244-.315-1.746-1.333-2.813-.995-1.067-2.838-1.528-1.819-.485-4.802-.485-3.273 0-5.383.558-2.11.534-3.323 1.528-1.212.97-1.697 2.352-.461 1.383-.461 3.08v17.316h-4.656v-27.938h4.656v4.414q.024-.073.218-.485t.68-.97q.508-.582 1.357-1.237.873-.655 2.231-1.212 1.383-.558 3.323-.922t4.608-.364q2.619 0 4.535.34 1.94.315 3.298.97 1.382.63 2.23 1.6.874.946 1.383 2.183.412-.655 1.285-1.528t2.426-1.673q1.576-.8 3.928-1.334 2.353-.558 5.748-.558 2.789 0 4.777.388 2.013.364 3.396 1.116 1.382.727 2.206 1.819.85 1.09 1.286 2.546.46 1.43.606 3.225.145 1.77.145 3.856v15.764h-4.656v-15.764q0-2.522-.34-4.244-.315-1.746-1.333-2.813-.994-1.067-2.837-1.528-1.82-.485-4.802-.485-3.274 0-5.384.558-2.11.534-3.322 1.528-1.213.97-1.698 2.352-.46 1.383-.46 3.08zM117.843 228.957q0-4.293.921-7.106.922-2.813 2.959-4.462 2.037-1.649 5.287-2.304 3.25-.679 7.906-.679t7.906.68q3.25.654 5.286 2.303 2.038 1.65 2.96 4.462.92 2.813.92 7.106 0 4.292-.92 7.13-.922 2.837-2.96 4.51-2.037 1.674-5.286 2.377-3.25.68-7.906.68-4.657 0-7.906-.68-3.25-.703-5.287-2.376-2.037-1.674-2.959-4.511-.921-2.838-.921-7.13zm4.656 0q0 2.328.17 4.05t.63 2.959q.485 1.236 1.334 2.012.849.776 2.231 1.237 1.383.461 3.347.63 1.989.17 4.705.17 2.328 0 4.147-.096 1.843-.122 3.2-.51 1.383-.388 2.353-1.091.97-.728 1.552-1.964.607-1.237.873-3.032.291-1.819.291-4.365 0-2.498-.29-4.244-.267-1.77-.874-2.959-.582-1.188-1.552-1.867-.97-.703-2.352-1.043-1.358-.364-3.201-.46-1.82-.098-4.147-.098-2.328 0-4.172.097-1.818.097-3.2.461-1.359.34-2.329 1.043-.97.679-1.576 1.867-.582 1.189-.873 2.959-.267 1.746-.267 4.244zM173.718 243.653q-4.656 0-7.906-.679t-5.287-2.328q-2.037-1.649-2.959-4.438-.921-2.789-.921-7.009 0-4.365.921-7.226.922-2.862 2.96-4.535 2.036-1.674 5.286-2.353 3.25-.679 7.906-.679 3.298 0 5.53.34 2.23.34 3.637.849 1.43.509 2.158 1.115.752.582 1.091 1.091V205.87h4.657v37.25h-4.657v-4.147l-1.164 1.382q-1.018.994-2.255 1.6-1.237.607-3.468 1.165-2.231.533-5.53.533zm0-3.637q2.328 0 4.147-.097 1.819-.122 3.2-.485 1.383-.364 2.329-1.068.97-.727 1.576-1.915.607-1.189.873-2.935.291-1.77.291-4.244 0-2.57-.29-4.365-.267-1.819-.874-3.031-.606-1.237-1.576-1.94-.946-.704-2.328-1.068-1.382-.388-3.201-.485-1.82-.097-4.147-.097-2.716 0-4.705.17-1.964.17-3.347.606-1.382.437-2.255 1.213-.849.776-1.334 1.989-.46 1.212-.63 2.934-.146 1.698-.146 4.002 0 2.28.146 3.977.17 1.673.63 2.886.485 1.188 1.334 1.964.873.776 2.255 1.213 1.383.436 3.347.606 1.989.17 4.705.17zM224.815 239.288q-.073.291-1.091 1.455-.728.873-1.94 1.552-1.213.655-3.25 1.019-2.013.388-5.31.388-4.39 0-7.495-.461-3.104-.437-5.068-1.358-1.964-.946-2.886-2.401-.897-1.455-.897-3.468 0-2.11.485-3.565.51-1.48 1.455-2.473.97-.995 2.328-1.553 1.358-.557 3.08-.848 1.746-.291 3.807-.364 2.062-.073 4.39-.073 3.322 0 5.553.291 2.231.267 3.638.703 1.43.413 2.158.898.728.485 1.043.897 0-2.716-.242-4.632-.219-1.916-.752-3.201-.51-1.285-1.334-2.037-.824-.776-2.037-1.164-1.188-.388-2.789-.485-1.6-.122-3.662-.122-3.201 0-5.31.17-2.11.146-3.348.606-1.236.461-1.746 1.286-.509.8-.509 2.11h-4.656q0-2.207.776-3.735.8-1.528 2.619-2.474 1.843-.97 4.826-1.406 2.983-.437 7.348-.437 4.268 0 7.227.703 2.959.704 4.778 2.474 1.843 1.77 2.643 4.778.824 2.983.824 7.566v13.193h-4.656zm-10.816.728q3.08 0 5.141-.291 2.086-.291 3.347-.873 1.261-.583 1.795-1.456.533-.873.533-2.037t-.63-1.964q-.607-.825-2.062-1.334-1.43-.51-3.807-.727-2.377-.243-5.869-.243t-5.65.121q-2.135.122-3.299.558-1.164.437-1.576 1.285-.388.85-.388 2.304 0 1.455.412 2.377.437.897 1.746 1.407 1.31.509 3.76.703 2.473.17 6.547.17zM237.256 205.87h4.656v37.25h-4.656z"/></g><g aria-label="x5" style="line-height:1.25;font-weight="400" font-size="172.932" font-family="MS Reference Sans Serif" fill="#0086ff" stroke-width="2.286"><path d="M144.723 194.479H124.71l-26.767-36.225-26.936 36.225H52.515l36.815-47.033-36.478-47.286h20.013l26.598 35.633 26.683-35.633h18.577l-37.07 46.442zM247.485 154.539q0 8.782-3.208 16.803-3.209 8.022-8.782 13.51-6.08 5.911-14.524 9.12-8.36 3.124-19.42 3.124-10.302 0-19.844-2.195-9.542-2.111-16.128-5.15v-17.818h1.182q6.924 4.391 16.213 7.516 9.288 3.04 18.239 3.04 5.995 0 11.568-1.69 5.657-1.688 10.048-5.91 3.715-3.631 5.573-8.697 1.942-5.067 1.942-11.738 0-6.501-2.28-10.977-2.195-4.475-6.164-7.177-4.39-3.209-10.724-4.475-6.248-1.351-14.017-1.351-7.43 0-14.354 1.013-6.84 1.013-11.822 2.026V68.748h75.658v14.777H187.28v33.438q3.63-.337 7.43-.506 3.8-.17 6.587-.17 10.217 0 17.901 1.774 7.684 1.689 14.102 6.08 6.755 4.644 10.47 11.99 3.715 7.346 3.715 18.408z"/></g></g></svg>